<?xml version="1.0" encoding="utf-8"?>
<!-- Generator: Adobe Illustrator 16.2.1, SVG Export Plug-In . SVG Version: 6.00 Build 0)  -->
<!DOCTYPE svg PUBLIC "-//W3C//DTD SVG 1.1//EN" "http://www.w3.org/Graphics/SVG/1.1/DTD/svg11.dtd">
<svg version="1.1" id="Layer_1" xmlns="http://www.w3.org/2000/svg" xmlns:xlink="http://www.w3.org/1999/xlink" x="0px" y="0px"
	 width="41.859px" height="41.859px" viewBox="0 0 41.859 41.859" enable-background="new 0 0 41.859 41.859" xml:space="preserve">
<path d="M20.93,0C9.37,0,0,9.37,0,20.93C0,32.49,9.37,41.86,20.93,41.86c11.56,0,20.93-9.37,20.93-20.93C41.86,9.37,32.49,0,20.93,0
	z M25.943,12.767l-0.102,18.056c-0.66,0.179-1.525,0.356-2.289,0.433l-0.051-18.541h-1.653l-0.077,18.209
	c-0.687,0.179-1.551,0.331-2.339,0.406l-0.026-8.596c-0.202,0-0.331,0-0.534,0c-0.38,0-1.399-0.152-2.263-0.559
	c-1.806-0.838-3.306-2.416-3.306-5.188c0-2.925,1.805-4.706,3.535-5.52c1.373-0.738,3.84-0.94,5.951-0.94
	c1.678,0,3.382,0.077,4.908,0.101c0,0.636,0.025,1.425,0.025,2.162L25.943,12.767z"/>
</svg>
